# xmcd
#
# Track frame offsets:
#	175
#	13112
#	30412
#	59625
#	76475
#	89562
#	105000
#	118337
#	147100
#	166862
#	188387
#	206650
#	222237
#	237162
#	266300
#	284375
#
# Disc length: 4034
#
# Revision: 1
# Processed by: cddbd v1.5.1PL0 Copyright (c) Steve Scherf et al.
# Submitted via: CDex 1.50
# Normalized: r0:DSETVAR1,TDELIM( - )
#
DISCID=d70fc010
DTITLE=Various Artist - All Time Jazz Instrumental Classics - Piano
DYEAR=1900
DGENRE=Jazz
TTITLE0=George Shearing - The Entertainer
TTITLE1=Oscar Peterson - This Guy's In Love With You
TTITLE2=Mary Lou Williams with the Benny Goodman Orchestra - Roll' Em
TTITLE3=Shelly Manne and Bill Evans - Danny Boy
TTITLE4=Count Basie - Blues In My Heart
TTITLE5=Art Blakey and The Jazz Messengers featuring Chuck Mangione and Keith Jarrett - Buttercorn Lady
TTITLE6=Antonio Carlos Jobim - Insensatez
TTITLE7=Red Garland - Daahoud
TTITLE8=George Shearing - Gymnopedie
TTITLE9=George Benson featuring Herbie Handcock - Thunder Walk
TTITLE10=Erroll Garner - Can't Help Lovin' Dat Man
TTITLE11=Count Basie - Sweet Larraine
TTITLE12=Antonio Carlos Jobim - Meditation
TTITLE13=Red Garland - Auf Wiedersehen
TTITLE14=Bill Evans - Pavane
TTITLE15=Oscar Peterson - Yesterday
EXTD=
EXTT0=
EXTT1=
EXTT2=
EXTT3=
EXTT4=
EXTT5=
EXTT6=
EXTT7=
EXTT8=
EXTT9=
EXTT10=
EXTT11=
EXTT12=
EXTT13=
EXTT14=
EXTT15=
PLAYORDER=
